<svg xmlns="http://www.w3.org/2000/svg" viewBox="0 0 64 64" role="img" aria-label="Class monitor">
  <rect width="64" height="64" fill="#F0FDFA"/>
  <ellipse cx="32" cy="58" rx="22" ry="10" fill="#CCFBF1"/>
  <path fill="#0891B2" d="M12 58c4-14 14-22 20-22s16 8 20 22H12z"/>
  <rect x="9" y="45" width="8" height="13" rx="2" fill="#EF4444"/>
  <rect x="10.5" y="48" width="5" height="1.4" rx="0.5" fill="#FFFFFF"/>
  <rect x="10.5" y="51.5" width="5" height="1.4" rx="0.5" fill="#FFFFFF"/>
  <rect x="10.5" y="55" width="5" height="1.4" rx="0.5" fill="#FFFFFF"/>
  <ellipse cx="32" cy="30" rx="14" ry="17" fill="#F5C9A8"/>
  <path fill="#134E4A" d="M20 22c1-7 7-11 12-11s10 4 11 11c-5-2-8-2-12 0-4-2-7-2-11 0z"/>
  <path fill="#0F766E" d="M38 18c8 0 14 6 14 14 0 5-2 9-6 11-1-8 0-14-4-18-8 2 2 4 6 4 11 0-4-2-7-6-8z"/>
  <circle cx="32" cy="51" r="5.5" fill="#FBBF24" stroke="#D97706" stroke-width="0.8"/>
  <path fill="#FFFFFF" d="M32 47.5l1.1 2.3 2.5.4-1.8 1.7.4 2.5-2.2-1.2-2.2 1.2.4-2.5-1.8-1.7 2.5-.4z"/>
  <ellipse cx="26" cy="30" rx="2.2" ry="2.8" fill="#134E4A"/>
  <ellipse cx="38" cy="30" rx="2.2" ry="2.8" fill="#134E4A"/>
  <ellipse cx="26.5" cy="29" rx="0.8" ry="0.9" fill="#FFFFFF"/>
  <ellipse cx="38.5" cy="29" rx="0.8" ry="0.9" fill="#FFFFFF"/>
  <path fill="none" stroke="#C47A5A" stroke-width="1.2" stroke-linecap="round" d="M28 36 Q32 39 36 36"/>
  <ellipse cx="22" cy="34" rx="2.4" ry="1.3" fill="#FDA4AF" opacity="0.4"/>
  <ellipse cx="42" cy="34" rx="2.4" ry="1.3" fill="#FDA4AF" opacity="0.4"/>
</svg>
