<svg xmlns="http://www.w3.org/2000/svg" viewBox="0 0 64 64" role="img" aria-label="Class monitor">
  <rect width="64" height="64" fill="#F0FDFA"/>
  <ellipse cx="32" cy="58" rx="22" ry="10" fill="#CCFBF1"/>
  <path fill="#0891B2" d="M12 58c4-14 14-22 20-22s16 8 20 22H12z"/>
  <path fill="#FFFFFF" d="M25 43h14c0 2-3 4-7 4s-7-2-7-4z"/>
  <ellipse cx="32" cy="30" rx="14" ry="17" fill="#F5C9A8"/>
  <path fill="#134E4A" d="M18 24c1-9 7-14 14-14s13 5 14 14c-6-2-10-2-14 0-4-2-8-2-14 0z"/>
  <path fill="#0F766E" d="M36 16c10 1 16 8 16 17 0 4-1 8-4 10-1-7 1-13-3-17-6 1 0 3 3 4 8 1-2-1-5-5-6-4-1-5-4-7-8z"/>
  <path fill="#134E4A" d="M44 22c3 5 4 11 2 17-1 3-3 6-6 7 2-5 2-10 0-15-1-4-3-7-6-9 4-1 7 0 10 0z"/>
  <ellipse cx="26" cy="30" rx="2.1" ry="2.7" fill="#134E4A"/>
  <ellipse cx="38" cy="30" rx="2.1" ry="2.7" fill="#134E4A"/>
  <ellipse cx="26.4" cy="29.1" rx="0.75" ry="0.85" fill="#FFFFFF"/>
  <ellipse cx="38.4" cy="29.1" rx="0.75" ry="0.85" fill="#FFFFFF"/>
  <path fill="none" stroke="#134E4A" stroke-width="0.85" stroke-linecap="round" d="M24 26.8h2.8 M37.2 26.8h2.8"/>
  <path fill="none" stroke="#C47A5A" stroke-width="1.1" stroke-linecap="round" d="M28.5 36 Q32 38 35.5 36"/>
  <ellipse cx="22" cy="34" rx="2.2" ry="1.2" fill="#FDA4AF" opacity="0.32"/>
  <ellipse cx="42" cy="34" rx="2.2" ry="1.2" fill="#FDA4AF" opacity="0.32"/>
  <rect x="13" y="46" width="7" height="10" rx="1.5" fill="#DC2626"/>
  <rect x="14.5" y="48.5" width="4" height="1.1" rx="0.4" fill="#FFFFFF"/>
  <rect x="14.5" y="51.5" width="4" height="1.1" rx="0.4" fill="#FFFFFF"/>
  <rect x="40" y="47" width="8" height="10" rx="1.5" fill="#F0FDFA" stroke="#0891B2" stroke-width="0.8"/>
  <path fill="#0891B2" d="M42 49h4v0.8h-4zm0 2h4v0.8h-4zm0 2h3v0.8h-3z"/>
  <rect x="44" y="45" width="1.2" height="5" rx="0.4" fill="#64748B"/>
</svg>
