<svg xmlns="http://www.w3.org/2000/svg" viewBox="0 0 64 64" role="img" aria-label="N">
  <rect width="64" height="64" fill="#EFF6FF"/>
  <ellipse cx="32" cy="58" rx="22" ry="10" fill="#DBEAFE"/>
  <path fill="#1E40AF" d="M10 58c5-12 16-20 22-20s17 8 22 20H10z"/>
  <path fill="#F8FAFC" d="M22 48h20v6c0 2-2 4-10 4s-10-2-10-4v-6z"/>
  <ellipse cx="32" cy="29" rx="13" ry="16" fill="#F0D0B0"/>
  <path fill="#1E3A5F" d="M19 24c2-9 9-14 13-14s11 5 13 14c-5-2-8-2-13 0-5-2-8-2-13 0z"/>
  <path fill="#334155" d="M32 14c6 0 11 4 12 10-5-2-7-2-12 0-5-2-7-2-12 0 1-6 6-10 12-10z"/>
  <rect x="19" y="26" width="26" height="7" rx="2.5" fill="none" stroke="#1E40AF" stroke-width="1.5"/>
  <ellipse cx="27" cy="29" rx="1.8" ry="2.2" fill="#1E293B"/>
  <ellipse cx="37" cy="29" rx="1.8" ry="2.2" fill="#1E293B"/>
  <path fill="none" stroke="#BE8A5A" stroke-width="1.2" stroke-linecap="round" d="M28 35 Q32 37 36 35"/>
</svg>
