<svg xmlns="http://www.w3.org/2000/svg" viewBox="0 0 64 64" role="img" aria-label="Teacher Li">
  <rect width="64" height="64" fill="#EFF6FF"/>
  <ellipse cx="32" cy="58" rx="22" ry="10" fill="#DBEAFE"/>
  <path fill="#1E3A8A" d="M8 58c6-14 17-22 24-22s17 8 24 22H8z"/>
  <path fill="#F8FAFC" d="M23 58 L32 43 L41 58 Z"/>
  <path fill="#DC2626" d="M29 43h6v3h-6zm-3 6l6 9 6-9-3 15h-6z"/>
  <ellipse cx="32" cy="28" rx="14" ry="16" fill="#E8C4A0"/>
  <path fill="#374151" d="M18 23c2-11 9-17 14-17s12 6 14 17c-6-2-10-2-14 0-4-2-8-2-14 0z"/>
  <path fill="none" stroke="#9CA3AF" stroke-width="1.2" stroke-linecap="round" d="M19 26c1 3 3 5 5 5 M45 26c-1 3-3 5-5 5"/>
  <circle cx="26" cy="30" r="5.2" fill="none" stroke="#111827" stroke-width="2"/>
  <circle cx="38" cy="30" r="5.2" fill="none" stroke="#111827" stroke-width="2"/>
  <path stroke="#111827" stroke-width="2" stroke-linecap="round" d="M31.2 30h1.6"/>
  <circle cx="26" cy="30" r="2" fill="#1F2937"/>
  <circle cx="38" cy="30" r="2" fill="#1F2937"/>
  <circle cx="27" cy="29" r="0.7" fill="#FFFFFF"/>
  <circle cx="39" cy="29" r="0.7" fill="#FFFFFF"/>
  <path fill="none" stroke="#B45309" stroke-width="1.3" stroke-linecap="round" d="M27 37 Q32 40 37 37"/>
  <path stroke="#F8FAFC" stroke-width="3.2" stroke-linecap="round" d="M45 38 L49 53"/>
  <circle cx="49" cy="53" r="2.2" fill="#10B981"/>
  <path fill="#1E3A8A" d="M44 52h8v6h-8z" opacity="0.9"/>
  <path fill="#F8FAFC" d="M45 54h6v1.2h-6zm0 2.2h4v0.8h-4z"/>
</svg>
