<svg xmlns="http://www.w3.org/2000/svg" viewBox="0 0 64 64" role="img" aria-label="Teacher Li">
  <rect width="64" height="64" fill="#F5EBE0"/>
  <ellipse cx="32" cy="57" rx="19" ry="5" fill="#E7D5C4"/>
  <path fill="#7C9082" d="M16 58 L24 44 L40 44 L48 58 Z"/>
  <path fill="#5F7161" d="M22 58 L28 48 L36 48 L42 58 Z"/>
  <circle cx="32" cy="31" r="12" fill="#F4C9A8"/>
  <ellipse cx="32" cy="21" rx="14" ry="9" fill="#4A3728"/>
  <ellipse cx="32" cy="24" rx="13" ry="7" fill="#4A3728"/>
  <ellipse cx="32" cy="15" rx="15" ry="6" fill="#8B4513"/>
  <rect x="24" y="10" width="16" height="5" rx="2.5" fill="#A0522D"/>
  <circle cx="27" cy="32" r="1.8" fill="#2F2419"/>
  <circle cx="37" cy="32" r="1.8" fill="#2F2419"/>
  <circle cx="27.6" cy="31.4" r="0.55" fill="#FFFFFF"/>
  <circle cx="37.6" cy="31.4" r="0.55" fill="#FFFFFF"/>
  <path fill="none" stroke="#C45C5C" stroke-width="1.1" stroke-linecap="round" d="M28 36 Q32 39 36 36"/>
  <ellipse cx="22" cy="34" rx="2" ry="1" fill="#E8A598" opacity="0.55"/>
  <ellipse cx="42" cy="34" rx="2" ry="1" fill="#E8A598" opacity="0.55"/>
  <rect x="10" y="46" width="9" height="11" rx="1.2" fill="#D4A574" stroke="#8B6914" stroke-width="0.7"/>
  <rect x="19" y="46" width="9" height="11" rx="1.2" fill="#FFF8E7" stroke="#8B6914" stroke-width="0.7"/>
  <rect x="18.5" y="46" width="1" height="11" fill="#8B6914"/>
  <rect x="21" y="49" width="5" height="1" fill="#C4B5A0"/>
  <rect x="21" y="52" width="4" height="1" fill="#C4B5A0"/>
  <rect x="45" y="38" width="3" height="14" rx="1" fill="#F59E0B"/>
  <polygon fill="#FBBF24" points="46.5,36 49,40 44,40"/>
</svg>
